<svg width="18" height="16" viewBox="0 0 18 16" fill="none" xmlns="http://www.w3.org/2000/svg">
<path d="M17.0687 0.302432C16.8936 -0.0863521 16.3936 -0.101903 16.1842 0.265109C15.2154 1.94154 13.4808 2.9866 11.4994 2.9866H8.99914C5.68633 2.9866 2.99858 5.66143 2.99858 8.95832C2.99858 9.17603 3.02358 9.38442 3.04545 9.59592C5.03939 8.17453 7.91779 6.96774 11.9994 6.96774C12.2745 6.96774 12.4995 7.19168 12.4995 7.46539C12.4995 7.73909 12.2745 7.96303 11.9994 7.96303C4.14243 7.96303 0.810867 12.756 0.0732972 14.5568C-0.132972 15.0638 0.110801 15.6423 0.620224 15.8507C1.13277 16.0622 1.71408 15.8165 1.9266 15.3126C1.97348 15.2006 2.57979 13.8228 4.17369 12.4947C5.18628 13.8601 7.11147 15.1633 9.63983 14.8958C14.5465 14.5413 18 10.162 18 4.79988C18 3.23853 17.6625 1.62119 17.0687 0.302432Z" fill="#383A44"/>
</svg>
