<svg width="136" height="16" viewBox="0 0 136 16" fill="none" xmlns="http://www.w3.org/2000/svg">
<path d="M24.1378 14H26.9055V9.35938H28.9254L31.4055 14H34.4609L31.6804 8.91193C33.1697 8.27273 33.9943 6.97514 33.9943 5.18537C33.9943 2.58381 32.2749 0.909091 29.3026 0.909091H24.1378V14ZM26.9055 7.13494V3.17188H28.772C30.37 3.17188 31.1435 3.88139 31.1435 5.18537C31.1435 6.48295 30.37 7.13494 28.7848 7.13494H26.9055ZM40.2154 14.1918C42.6444 14.1918 44.2807 13.0092 44.6642 11.1875L42.1458 11.0213C41.8709 11.7692 41.1678 12.1591 40.2601 12.1591C38.8986 12.1591 38.0357 11.2578 38.0357 9.79403V9.78764H44.7218V9.03977C44.7218 5.70312 42.7019 4.05398 40.1067 4.05398C37.2175 4.05398 35.3446 6.10582 35.3446 9.13565C35.3446 12.2486 37.1919 14.1918 40.2154 14.1918ZM38.0357 8.10014C38.0932 6.98153 38.9434 6.08665 40.1515 6.08665C41.334 6.08665 42.1522 6.9304 42.1586 8.10014H38.0357ZM46.4988 14H49.2218V8.10653C49.2218 7.01989 49.9121 6.29759 50.8198 6.29759C51.7147 6.29759 52.3155 6.91122 52.3155 7.87642V14H54.9554V8.00426C54.9554 6.98793 55.5371 6.29759 56.5279 6.29759C57.3972 6.29759 58.0492 6.84091 58.0492 7.93395V14H60.7658V7.39702C60.7658 5.26847 59.5002 4.05398 57.6721 4.05398C56.2338 4.05398 55.1152 4.78906 54.7125 5.91406H54.6103C54.2971 4.77628 53.2935 4.05398 51.9448 4.05398C50.6216 4.05398 49.6181 4.7571 49.209 5.91406H49.0939V4.18182H46.4988V14ZM62.9679 14H65.6525V12.4276H65.774C66.1511 13.2457 66.9757 14.1598 68.5609 14.1598C70.7981 14.1598 72.5431 12.3892 72.5431 9.10369C72.5431 5.72869 70.7214 4.05398 68.5673 4.05398C66.9245 4.05398 66.1383 5.03196 65.774 5.83097H65.6909V0.909091H62.9679V14ZM65.6333 9.09091C65.6333 7.33949 66.3748 6.22088 67.698 6.22088C69.0467 6.22088 69.7626 7.39062 69.7626 9.09091C69.7626 10.804 69.0339 11.9929 67.698 11.9929C66.3876 11.9929 65.6333 10.8423 65.6333 9.09091ZM74.3601 14H77.0831V8.44531C77.0831 7.23722 77.9652 6.40625 79.1669 6.40625C79.544 6.40625 80.0618 6.47017 80.3175 6.55327V4.13707C80.0746 4.07955 79.7358 4.04119 79.4609 4.04119C78.3615 4.04119 77.4602 4.6804 77.1023 5.89489H77V4.18182H74.3601V14ZM84.2438 14.1854C85.6948 14.1854 86.6344 13.5526 87.1138 12.6385H87.1905V14H89.7729V7.37784C89.7729 5.03835 87.7914 4.05398 85.6053 4.05398C83.253 4.05398 81.7061 5.17898 81.329 6.96875L83.8475 7.1733C84.0328 6.52131 84.6145 6.0419 85.5925 6.0419C86.5194 6.0419 87.0499 6.50852 87.0499 7.31392V7.35227C87.0499 7.98509 86.3787 8.06818 84.6721 8.23438C82.7289 8.41335 80.9838 9.06534 80.9838 11.2578C80.9838 13.201 82.3709 14.1854 84.2438 14.1854ZM85.0236 12.3061C84.1863 12.3061 83.5854 11.9162 83.5854 11.1683C83.5854 10.4013 84.2182 10.0241 85.177 9.88991C85.7715 9.80682 86.7431 9.66619 87.0691 9.44886V10.4908C87.0691 11.5199 86.2189 12.3061 85.0236 12.3061ZM94.6085 8.32386C94.6149 7.05824 95.3691 6.31676 96.4686 6.31676C97.5616 6.31676 98.22 7.03267 98.2136 8.23438V14H100.937V7.74858C100.937 5.46023 99.5943 4.05398 97.5488 4.05398C96.0914 4.05398 95.0368 4.76989 94.5957 5.91406H94.4806V4.18182H91.8855V14H94.6085V8.32386ZM107.519 14.1918C110.133 14.1918 111.776 12.6577 111.904 10.4013H109.334C109.174 11.4496 108.484 12.0376 107.551 12.0376C106.279 12.0376 105.454 10.9702 105.454 9.09091C105.454 7.23722 106.285 6.17614 107.551 6.17614C108.548 6.17614 109.187 6.83452 109.334 7.8125H111.904C111.789 5.54332 110.069 4.05398 107.506 4.05398C104.527 4.05398 102.686 6.11861 102.686 9.12926C102.686 12.1143 104.495 14.1918 107.519 14.1918ZM118.122 14.1918C120.551 14.1918 122.187 13.0092 122.57 11.1875L120.052 11.0213C119.777 11.7692 119.074 12.1591 118.166 12.1591C116.805 12.1591 115.942 11.2578 115.942 9.79403V9.78764H122.628V9.03977C122.628 5.70312 120.608 4.05398 118.013 4.05398C115.124 4.05398 113.251 6.10582 113.251 9.13565C113.251 12.2486 115.098 14.1918 118.122 14.1918ZM115.942 8.10014C115.999 6.98153 116.85 6.08665 118.058 6.08665C119.24 6.08665 120.058 6.9304 120.065 8.10014H115.942Z" fill="#383A44"/>
<path d="M17.0687 0.302432C16.8936 -0.0863521 16.3936 -0.101903 16.1842 0.265109C15.2154 1.94154 13.4808 2.9866 11.4994 2.9866H8.99914C5.68633 2.9866 2.99858 5.66143 2.99858 8.95832C2.99858 9.17603 3.02358 9.38442 3.04545 9.59592C5.03939 8.17453 7.91779 6.96774 11.9994 6.96774C12.2745 6.96774 12.4995 7.19168 12.4995 7.46539C12.4995 7.73909 12.2745 7.96303 11.9994 7.96303C4.14243 7.96303 0.810867 12.756 0.0732972 14.5568C-0.132972 15.0638 0.110801 15.6423 0.620224 15.8507C1.13277 16.0622 1.71408 15.8165 1.9266 15.3126C1.97348 15.2006 2.57979 13.8228 4.17369 12.4947C5.18628 13.8601 7.11147 15.1633 9.63983 14.8958C14.5465 14.5413 18 10.162 18 4.79988C18 3.23853 17.6625 1.62119 17.0687 0.302432Z" fill="#383A44"/>
</svg>
